<?xml version="1.0" encoding="utf-8"?>
<!-- Generator: Adobe Illustrator 25.0.1, SVG Export Plug-In . SVG Version: 6.00 Build 0)  -->
<svg version="1.1" id="Layer_2" xmlns="http://www.w3.org/2000/svg" xmlns:xlink="http://www.w3.org/1999/xlink" x="0px" y="0px"
	 viewBox="0 0 139.45 77.28" style="enable-background:new 0 0 139.45 77.28;" xml:space="preserve">
<style type="text/css">
	.st0{fill:#FFFFFF;}
</style>
<g>
	<path class="st0" d="M64.35,31.54c-0.87,1.87-6.5,1.39-10.61-0.13c-5.92-2.19-11.08-7.43-10.12-9.47c0.68-1.44,4.33-1.03,6.64-0.76
		c6.22,0.71,9.94,4.12,10.66,4.8C62.1,27.1,65.1,29.93,64.35,31.54z"/>
	<path class="st0" d="M67.72,31.54c0.87,1.87,6.5,1.39,10.61-0.13c5.92-2.19,11.08-7.43,10.12-9.47c-0.68-1.44-4.33-1.03-6.64-0.76
		c-6.22,0.71-9.94,4.12-10.66,4.8C69.97,27.1,66.97,29.93,67.72,31.54z"/>
	<path class="st0" d="M64.5,28c-0.85,0.33-1.77-2.38-5.14-4.76c-3.3-2.33-4.83-1.43-6.69-3.35c-2.91-3-11.19-13.35-0.88-10.15
		c1.61,0.5,3.91,1.09,5.96,2.62c4.88,3.65,6.33,8.35,6.6,9.27C65.11,24.21,65.42,27.64,64.5,28z"/>
	<path class="st0" d="M67.06,28.25C65.88,27.84,67,15.87,70.98,9.13c2.85-4.82,11.84-10.9,12.24-6.81
		c0.17,1.75-0.54,12.86-2.68,15.32c-2.62,3.03-3.33,3.65-4.59,4c-3.45,0.95-3.53,1.53-6.25,4.2C67.11,28.39,67.86,28.53,67.06,28.25
		z"/>
	<path class="st0" d="M63.75,15.83c-1.23,0.77-4.01-3.1-5.35-6.65c-1.04-2.76-0.58-7.46,0.6-6.8c2.51,1.4,4.07,2.48,5.24,5.71
		C64.37,8.46,65.05,15.01,63.75,15.83z"/>
	<path class="st0" d="M67.43,10.89c-1.01-0.23-1.82-3.44-0.88-5.91c0.73-1.92,4.11-5.91,4.42-4.98c0.67,1.98,0.49,4.49-0.4,6.72
		C70.48,6.97,68.5,11.14,67.43,10.89z"/>
	<g>
		<path class="st0" d="M7.1,40.64v19.15l8.95-9.3h8.4l-9.75,9.5l10.85,16.35h-8.6l-7.1-11.55L7.1,67.44v8.9H0v-35.7H7.1z"/>
		<path class="st0" d="M34.45,76.34L25.6,50.49h7.45l5.45,17.65h0.1l5.45-17.65h7.05l-8.75,25.85H34.45z"/>
		<path class="st0" d="M54.25,46.49v-5.85h7.1v5.85H54.25z M61.35,50.49v25.85h-7.1V50.49H61.35z"/>
		<path class="st0" d="M81.15,50.49v4.75h-5.2v12.8c0,1.2,0.2,2,0.6,2.4c0.4,0.4,1.2,0.6,2.4,0.6c0.4,0,0.78-0.02,1.15-0.05
			c0.37-0.03,0.72-0.08,1.05-0.15v5.5c-0.6,0.1-1.27,0.17-2,0.2c-0.73,0.03-1.45,0.05-2.15,0.05c-1.1,0-2.14-0.08-3.12-0.22
			c-0.98-0.15-1.85-0.44-2.6-0.88s-1.34-1.05-1.77-1.85c-0.43-0.8-0.65-1.85-0.65-3.15V55.24h-4.3v-4.75h4.3v-7.75h7.1v7.75H81.15z"
			/>
		<path class="st0" d="M92.15,70.14c1.07,1.03,2.6,1.55,4.6,1.55c1.43,0,2.67-0.36,3.7-1.07s1.67-1.48,1.9-2.28h6.25
			c-1,3.1-2.53,5.32-4.6,6.65c-2.07,1.33-4.57,2-7.5,2c-2.03,0-3.87-0.33-5.5-0.98c-1.63-0.65-3.02-1.58-4.15-2.77
			c-1.13-1.2-2.01-2.63-2.62-4.3c-0.62-1.67-0.92-3.5-0.92-5.5c0-1.93,0.32-3.73,0.95-5.4s1.53-3.11,2.7-4.33s2.56-2.17,4.18-2.88
			c1.62-0.7,3.41-1.05,5.38-1.05c2.2,0,4.12,0.42,5.75,1.27c1.63,0.85,2.97,1.99,4.02,3.42c1.05,1.43,1.81,3.07,2.28,4.9
			c0.47,1.83,0.63,3.75,0.5,5.75H90.4C90.5,67.44,91.08,69.1,92.15,70.14z M100.17,56.54c-0.85-0.93-2.14-1.4-3.88-1.4
			c-1.13,0-2.08,0.19-2.83,0.58c-0.75,0.38-1.35,0.86-1.8,1.42c-0.45,0.57-0.77,1.17-0.95,1.8c-0.18,0.63-0.29,1.2-0.33,1.7h11.55
			C101.62,58.84,101.02,57.47,100.17,56.54z"/>
		<path class="st0" d="M121,40.64v19.15l8.95-9.3h8.4l-9.75,9.5l10.85,16.35h-8.6l-7.1-11.55L121,67.44v8.9h-7.1v-35.7H121z"/>
	</g>
</g>
</svg>
